<svg xmlns="http://www.w3.org/2000/svg" version="1.1" xmlns:xlink="http://www.w3.org/1999/xlink" xmlns:svgjs="http://svgjs.dev/svgjs" width="2000" height="1740" viewBox="0 0 2000 1740"><g transform="matrix(1,0,0,1,0.4382716049381088,-2.461914893616722)"><svg viewBox="0 0 162 141" data-background-color="#ffffff" preserveAspectRatio="xMidYMid meet" height="1740" width="2000" xmlns="http://www.w3.org/2000/svg" xmlns:xlink="http://www.w3.org/1999/xlink"><g id="tight-bounds" transform="matrix(1,0,0,1,-0.035499999999984766,0.19949999999997203)"><svg viewBox="0 0 162.07092412844037 140.60052000000002" height="140.60052000000002" width="162.07092412844037"><g><svg viewBox="0 0 162.07092412844037 140.60052000000002" height="140.60052000000002" width="162.07092412844037"><g><svg viewBox="0 0 162.07092412844037 140.60052000000002" height="140.60052000000002" width="162.07092412844037"><g><path d="M0 140.601v-140.601h162.071v140.601z" fill="#336a86" stroke="transparent" stroke-width="0" rx="0%" data-fill-palette-color="tertiary"></path><path d="M3.283 137.317v-134.034h155.505v134.034z" fill="#ffffff" stroke="transparent" stroke-width="0" rx="0%" data-fill-palette-color="quaternary"></path><path d="M9.85 130.751v-120.901h142.371v120.901z" fill="#336a86" stroke="transparent" stroke-width="0" data-fill-palette-color="tertiary"></path></g><g transform="matrix(1,0,0,1,19.69973999999999,19.69974)" id="textblocktransform"><svg viewBox="0 0 122.67144412844038 101.20104000000002" height="101.20104000000002" width="122.67144412844038" id="textblock"><g><svg viewBox="0 0 122.67144412844038 101.20104000000002" height="101.20104000000002" width="122.67144412844038"><g transform="matrix(1,0,0,1,0,0)"><svg width="122.67144412844038" viewBox="-0.05 -35 52.849999999999994 43.6" height="101.20104000000002" data-palette-color="#ffffff"><path d="M0.4 8.6L-0.05 4.55Q2.25 4.55 3.08 3.65 3.9 2.75 3.9 0.15L3.9 0.15 3.9-35 8.45-35 8.45 1.6Q8.45 5.05 6.6 6.83 4.75 8.6 1.45 8.6L1.45 8.6 0.4 8.6ZM12.55 8.6L12.1 4.55Q14.4 4.55 15.22 3.65 16.05 2.75 16.05 0.15L16.05 0.15 16.05-35 20.6-35 20.6 1.6Q20.6 5.05 18.75 6.83 16.9 8.6 13.6 8.6L13.6 8.6 12.55 8.6ZM27.59 0L27.59-35 32.14-35 32.14-20.55 48.25-20.55 48.25-35 52.8-35 52.8 0 48.25 0 48.25-16.1 32.14-16.1 32.14 0 27.59 0Z" opacity="1" transform="matrix(1,0,0,1,0,0)" fill="#ffffff" class="wordmark-text-0" data-fill-palette-color="quaternary" id="text-0"></path></svg></g></svg></g></svg></g></svg></g><g></g></svg></g><defs></defs></svg><rect width="162.07092412844037" height="140.60052000000002" fill="none" stroke="none" visibility="hidden"></rect></g></svg></g></svg>